# xmcd CD database file
#
# Track frame offsets:
#	150
#	25046
#	49124
#	70646
#	95462
#	118117
#	140347
#	169106
#	196316
#	214500
#	235950
#
# Disc length: 3529 seconds
#
# Revision: 1
# Processed by: cddbd v1.5PL3 Copyright (c) Steve Scherf et al.
# Submitted via: CDex 1.51
#
DISCID=910dc70b
DTITLE=葛谷 葉子 - MUSIC GREETINGS VOLUME ONE
DYEAR=1999
DGENRE=Pop
TTITLE0=TRUE LIES
TTITLE1=Natural
TTITLE2=Sweet Rhythm
TTITLE3=All Night
TTITLE4=恋
TTITLE5=夢も見ないまま
TTITLE6=最後の夜
TTITLE7=Round&Round
TTITLE8=夏の残り香
TTITLE9=すべてを守りたい
TTITLE10=Promise me
EXTD=YEAR: 1999
EXTT0=
EXTT1=
EXTT2=
EXTT3=
EXTT4=
EXTT5=
EXTT6=
EXTT7=
EXTT8=
EXTT9=
EXTT10=
PLAYORDER=
